<?xml version="1.0" encoding="utf-8"?>
<!-- Generator: Adobe Illustrator 26.3.1, SVG Export Plug-In . SVG Version: 6.00 Build 0)  -->
<svg version="1.1" id="Layer_1" xmlns="http://www.w3.org/2000/svg" xmlns:xlink="http://www.w3.org/1999/xlink" x="0px" y="0px"
	 viewBox="0 0 1024 1024" style="enable-background:new 0 0 1024 1024;" xml:space="preserve">
<style type="text/css">
	.st0{fill:#3366FF;}
	.st1{fill:none;stroke:#FFFFFF;stroke-width:45;stroke-linecap:round;stroke-linejoin:round;stroke-miterlimit:10;}
	.st2{fill:#FFFFFF;stroke:#FFFFFF;stroke-width:24;stroke-linecap:round;stroke-linejoin:round;stroke-miterlimit:10;}
	.st3{fill:#FFFFFF;stroke:#FFFFFF;stroke-width:0.5;stroke-linecap:round;stroke-linejoin:round;stroke-miterlimit:10;}
</style>
<circle class="st0" cx="504.87" cy="515.11" r="482.71"/>
<path class="st1" d="M102.17,306.58h92.52c17.58,0,33.35,10.85,39.63,27.28l99.37,259.98c7.72,20.2,27.1,33.53,48.72,33.53h322.09
	c17.58,0,32.97-11.82,37.5-28.81l10.32-38.68c6.05-22.69-10.92-44.99-34.4-45.2l-263.52-2.43c-16.25-0.15-30.94-9.67-37.72-24.44
	l-28.34-61.76c-11.53-25.12,6.92-53.72,33.5-60.45l494.62,2.52"/>
<circle class="st2" cx="659.6" cy="733.53" r="32.85"/>
<circle class="st2" cx="426.22" cy="733.53" r="32.85"/>
<polygon class="st3" points="59.48,328.86 102.35,328.86 102.17,284.46 80.73,284.46 69.88,305.59 "/>
</svg>
